<?xml version="1.0" encoding="UTF-8"?>
<!-- Generator: visioncortex VTracer 0.6.3 -->
<svg version="1.1" xmlns="http://www.w3.org/2000/svg" width="1280" height="1280">
<path d="M0 0 C2.41 0.88 4.82 1.76 7.23 2.64 C9 3.29 9 3.29 10.79 3.95 C15.04 5.47 19.31 6.89 23.59 8.3 C27.18 9.5 30.72 10.82 34.25 12.19 C35.41 12.63 35.41 12.63 36.59 13.09 C38.28 13.74 39.97 14.39 41.65 15.04 C49.67 18.12 57.69 21.06 65.86 23.71 C75.65 26.95 85.32 30.55 95.02 34.03 C99.11 35.5 103.21 36.94 107.31 38.38 C112.96 40.36 118.58 42.41 124.19 44.5 C135.14 48.57 146.19 52.34 157.23 56.15 C161.47 57.61 165.71 59.08 169.94 60.56 C170.59 60.79 171.24 61.02 171.91 61.25 C174.79 62.26 177.59 63.34 180.38 64.57 C185.93 66.99 191.71 68.8 197.44 70.75 C200.03 71.64 202.63 72.53 205.23 73.42 C205.89 73.65 206.55 73.87 207.23 74.11 C215.42 76.92 223.57 79.85 231.71 82.79 C236.97 84.68 242.25 86.53 247.56 88.29 C251.46 89.58 255.32 90.93 259.16 92.4 C263.75 94.14 268.38 95.78 273 97.44 C274.1 97.83 275.2 98.23 276.33 98.64 C283.09 101.06 289.85 103.46 296.62 105.81 C302.79 107.96 308.94 110.16 315.06 112.44 C323.51 115.58 332 118.61 340.5 121.62 C341.17 121.86 341.84 122.1 342.53 122.35 C351.07 125.37 359.62 128.36 368.19 131.31 C376.8 134.28 385.33 137.45 393.84 140.69 C401.82 143.7 409.87 146.5 417.94 149.25 C426.8 152.28 435.62 155.37 444.38 158.69 C445.24 159.01 446.1 159.34 446.99 159.68 C447.78 159.98 448.57 160.28 449.38 160.59 C450.06 160.85 450.74 161.12 451.44 161.38 C453.25 162.19 453.25 162.19 456.25 164.19 C456.92 172.86 455.59 181.6 454.6 190.21 C454.31 192.71 454.03 195.21 453.76 197.7 C453.58 199.29 453.4 200.88 453.22 202.47 C453.14 203.21 453.06 203.96 452.97 204.73 C452.37 209.96 452.37 209.96 451.25 212.19 C451.28 213.67 451.28 213.67 451.31 215.19 C451.36 218.12 450.98 220.65 450.31 223.5 C449.08 229.11 448.86 234.69 448.68 240.42 C448.53 244.15 448.2 247.65 447.36 251.3 C445.87 258.57 445.2 265.94 444.43 273.31 C444.15 276.02 443.86 278.73 443.57 281.44 C442.96 287.19 442.35 292.94 441.75 298.69 C441.05 305.36 440.34 312.03 439.63 318.7 C439.35 321.35 439.07 324 438.8 326.66 C437.25 341.27 437.25 341.27 435.61 348.27 C435.13 350.52 435.13 350.52 435.25 354.19 C435.25 357.4 435.01 359.68 434.33 362.74 C433.19 368.23 432.53 373.71 431.94 379.28 C431.76 380.87 431.76 380.87 431.59 382.49 C431.21 385.96 430.84 389.44 430.46 392.91 C430.2 395.34 429.94 397.77 429.67 400.2 C428.98 406.58 428.29 412.96 427.61 419.34 C426.91 425.82 426.21 432.3 425.51 438.78 C424.37 449.25 423.24 459.73 422.11 470.2 C421.92 472.01 421.72 473.82 421.52 475.64 C421.34 477.36 421.16 479.08 420.99 480.8 C420.36 486.97 420.36 486.97 419.25 489.19 C419.21 490.54 419.21 491.9 419.25 493.25 C419.25 494.55 419.25 495.85 419.25 497.19 C418.92 497.52 418.59 497.85 418.25 498.19 C417.84 501.04 417.49 503.88 417.19 506.75 C417.1 507.54 417.01 508.32 416.91 509.13 C416.5 512.86 416.25 516.4 416.32 520.15 C416.36 523.19 415.97 525.88 415.32 528.84 C414.29 533.79 413.64 538.71 413.12 543.74 C412.98 545.08 412.98 545.08 412.83 546.45 C412.62 548.37 412.42 550.3 412.22 552.22 C411.9 555.26 411.57 558.31 411.25 561.35 C410.55 567.79 409.87 574.24 409.19 580.69 C408.39 588.19 407.59 595.69 406.79 603.19 C406.47 606.19 406.15 609.19 405.84 612.19 C405.64 614.02 405.45 615.85 405.25 617.67 C405.16 618.51 405.08 619.35 404.99 620.21 C404.36 625.96 404.36 625.96 403.25 628.19 C402.98 629.98 402.76 631.78 402.57 633.58 C402.44 634.72 402.31 635.87 402.18 637.04 C401.98 638.94 401.98 638.94 401.78 640.87 C401.63 642.2 401.48 643.54 401.34 644.88 C401.02 647.76 400.71 650.64 400.4 653.52 C399.91 658.08 399.41 662.63 398.91 667.19 C397.85 676.85 396.8 686.52 395.75 696.19 C394.62 706.62 393.48 717.06 392.34 727.49 C391.84 732.02 391.35 736.55 390.86 741.08 C390.56 743.9 390.25 746.71 389.94 749.53 C389.73 751.46 389.52 753.4 389.32 755.33 C389.19 756.47 389.06 757.62 388.93 758.8 C388.82 759.8 388.72 760.79 388.6 761.82 C388.25 764.19 388.25 764.19 387.25 766.19 C387.01 768.24 386.81 770.3 386.64 772.37 C386.52 773.61 386.41 774.84 386.29 776.12 C386.06 778.74 385.83 781.36 385.62 783.98 C385.44 785.84 385.44 785.84 385.26 787.74 C385.16 788.88 385.06 790.02 384.96 791.19 C383.92 795.57 381.77 797.25 378.03 799.56 C376.83 800.16 376.83 800.16 375.62 800.77 C374.28 801.46 374.28 801.46 372.92 802.16 C372 802.62 371.08 803.08 370.12 803.56 C363.82 806.76 357.69 810.08 351.66 813.75 C347.92 815.98 344.06 817.95 340.19 819.94 C332.42 823.97 324.87 828.28 317.36 832.75 C306.84 839.01 296.11 844.81 285.25 850.45 C279.61 853.41 274.17 856.59 268.75 859.93 C263.67 863.02 258.43 865.64 253.09 868.24 C247.67 870.9 242.61 874 237.5 877.22 C222.66 886.19 222.66 886.19 218.25 886.19 C218.25 886.85 218.25 887.51 218.25 888.19 C217.67 888.49 217.09 888.79 216.5 889.1 C213.81 890.5 211.12 891.91 208.44 893.31 C207.53 893.79 206.62 894.26 205.68 894.75 C195.24 900.21 184.94 905.89 174.69 911.69 C173.24 912.5 173.24 912.5 171.77 913.33 C167.15 915.94 162.57 918.59 158.04 921.34 C153.26 924.23 148.35 926.7 143.33 929.11 C138.68 931.38 134.28 933.94 129.86 936.63 C125.52 939.22 121.07 941.6 116.62 944 C110.07 947.55 103.54 951.13 97.06 954.81 C90.42 958.59 83.67 962.14 76.89 965.67 C72.16 968.15 67.57 970.75 63.03 973.56 C58.24 976.36 53.3 978.87 48.38 981.41 C43.39 983.99 38.56 986.76 33.76 989.67 C29.65 992.16 25.48 994.55 21.31 996.94 C20.41 997.45 19.52 997.97 18.59 998.5 C11.69 1002.42 4.71 1006.18 -2.36 1009.8 C-6.03 1011.7 -9.49 1013.66 -12.92 1015.97 C-16.38 1018.15 -18.6 1018.98 -22.75 1018.19 C-25.13 1016.98 -27.22 1015.77 -29.44 1014.31 C-35.09 1010.75 -40.81 1007.5 -46.75 1004.44 C-55.38 999.97 -63.84 995.23 -72.27 990.39 C-73.2 989.86 -74.13 989.33 -75.09 988.78 C-75.92 988.3 -76.75 987.83 -77.6 987.34 C-79.83 986.07 -79.83 986.07 -82.75 985.19 C-82.75 984.53 -82.75 983.87 -82.75 983.19 C-83.9 982.87 -83.9 982.87 -85.08 982.55 C-90.16 980.66 -94.76 978.06 -99.5 975.44 C-100.44 974.92 -101.38 974.41 -102.34 973.88 C-106.94 971.36 -111.48 968.77 -115.96 966.04 C-120.07 963.55 -124.24 961.38 -128.56 959.31 C-133.56 956.87 -138.35 954.29 -143.06 951.31 C-148.98 947.57 -155.08 944.34 -161.3 941.12 C-168.07 937.6 -174.66 933.81 -181.25 929.95 C-185.84 927.26 -190.45 924.78 -195.25 922.48 C-198.6 920.75 -201.79 918.78 -205 916.81 C-212.05 912.5 -219.29 908.76 -226.75 905.19 C-226.75 904.53 -226.75 903.87 -226.75 903.19 C-227.3 903.03 -227.84 902.87 -228.41 902.71 C-234.34 900.88 -239.34 898.34 -244.62 895.12 C-251.22 891.2 -257.87 887.47 -264.69 883.94 C-272.82 879.71 -280.73 875.21 -288.58 870.48 C-294.96 866.7 -301.44 863.3 -308.09 860.03 C-312.21 858 -316.14 855.84 -319.99 853.32 C-324.59 850.36 -329.47 847.86 -334.3 845.3 C-345.73 839.26 -345.73 839.26 -350.5 836.31 C-355.04 833.53 -359.72 831.08 -364.44 828.62 C-371.98 824.7 -379.42 820.62 -386.81 816.44 C-387.75 815.91 -388.69 815.38 -389.66 814.83 C-394.13 812.29 -398.57 809.7 -402.96 807.03 C-407.57 804.24 -412.28 801.89 -417.17 799.65 C-418.74 798.9 -420.25 798.05 -421.75 797.19 C-422.25 795.7 -422.25 795.7 -422.75 794.19 C-423.41 794.19 -424.07 794.19 -424.75 794.19 C-426.56 783.23 -427.86 772.22 -429.12 761.19 C-429.34 759.3 -429.56 757.41 -429.78 755.53 C-430.87 746.12 -431.92 736.7 -432.93 727.29 C-433.02 726.43 -433.11 725.57 -433.21 724.69 C-433.64 720.63 -434.07 716.57 -434.49 712.51 C-434.65 711.06 -434.8 709.61 -434.95 708.16 C-435.08 706.9 -435.21 705.65 -435.35 704.36 C-435.66 701.86 -436.14 699.61 -436.75 697.19 C-436.75 694.85 -436.75 692.52 -436.75 690.19 C-437.08 689.86 -437.41 689.53 -437.75 689.19 C-438 687.7 -438.19 686.2 -438.36 684.71 C-438.47 683.74 -438.58 682.77 -438.69 681.77 C-438.8 680.7 -438.92 679.63 -439.04 678.52 C-439.23 676.84 -439.23 676.84 -439.42 675.12 C-439.84 671.39 -440.25 667.65 -440.66 663.92 C-440.94 661.32 -441.23 658.73 -441.52 656.14 C-442.12 650.69 -442.73 645.24 -443.32 639.78 C-444.01 633.51 -444.71 627.23 -445.41 620.95 C-446.08 614.9 -446.75 608.85 -447.42 602.79 C-447.7 600.23 -447.98 597.66 -448.27 595.09 C-448.67 591.49 -449.06 587.88 -449.46 584.27 C-449.58 583.22 -449.69 582.18 -449.81 581.09 C-450.49 574.9 -451.04 568.7 -451.48 562.49 C-451.5 560.23 -451.5 560.23 -452.75 559.19 C-453.01 557.63 -453.2 556.06 -453.37 554.49 C-453.49 553.47 -453.6 552.45 -453.72 551.4 C-453.9 549.71 -453.9 549.71 -454.09 547.98 C-454.22 546.8 -454.35 545.62 -454.48 544.41 C-454.84 541.15 -455.19 537.89 -455.55 534.63 C-455.92 531.2 -456.3 527.76 -456.68 524.33 C-457.56 516.29 -458.44 508.26 -459.32 500.23 C-460.43 490.11 -461.53 479.99 -462.65 469.87 C-463.02 466.47 -463.4 463.07 -463.76 459.66 C-465.58 442.95 -467.61 426.28 -469.89 409.63 C-470.91 402.15 -471.73 394.66 -472.48 387.15 C-472.87 383.2 -473.27 379.25 -473.68 375.3 C-473.77 374.48 -473.85 373.66 -473.94 372.82 C-475.05 362.17 -476.32 351.55 -477.57 340.92 C-478.73 331.08 -479.87 321.24 -480.92 311.38 C-481.01 310.52 -481.11 309.66 -481.2 308.77 C-481.64 304.68 -482.07 300.6 -482.49 296.51 C-482.65 295.06 -482.8 293.61 -482.95 292.16 C-483.08 290.9 -483.21 289.65 -483.35 288.36 C-483.66 285.86 -484.14 283.61 -484.75 281.19 C-484.75 278.85 -484.75 276.52 -484.75 274.19 C-485.08 273.86 -485.41 273.53 -485.75 273.19 C-486.18 270.18 -486.54 267.18 -486.87 264.16 C-487.03 262.74 -487.03 262.74 -487.2 261.29 C-487.56 258.13 -487.9 254.98 -488.25 251.82 C-488.5 249.63 -488.74 247.44 -488.99 245.24 C-489.5 240.64 -490.02 236.03 -490.53 231.42 C-491.18 225.53 -491.84 219.65 -492.5 213.76 C-493.01 209.23 -493.51 204.69 -494.01 200.16 C-494.26 197.99 -494.5 195.82 -494.74 193.65 C-495.09 190.61 -495.42 187.56 -495.76 184.51 C-495.86 183.62 -495.96 182.74 -496.06 181.83 C-496.73 175.6 -496.86 169.45 -496.75 163.19 C-496.01 162.94 -495.28 162.68 -494.52 162.42 C-491.14 161.26 -487.76 160.1 -484.38 158.94 C-483.22 158.54 -482.06 158.15 -480.87 157.74 C-475.87 156.01 -470.89 154.29 -466 152.27 C-457.72 148.89 -449.16 146.18 -440.68 143.32 C-438.37 142.54 -436.05 141.75 -433.74 140.96 C-433.04 140.73 -432.34 140.5 -431.62 140.25 C-427.23 138.76 -423.01 137.02 -418.75 135.19 C-416.66 134.43 -414.57 133.7 -412.46 132.99 C-411.28 132.59 -410.11 132.19 -408.89 131.78 C-407.65 131.35 -406.41 130.93 -405.12 130.5 C-396.46 127.55 -387.84 124.53 -379.31 121.19 C-370.18 117.62 -360.91 114.54 -351.6 111.48 C-342.43 108.47 -333.4 105.22 -324.43 101.64 C-319.27 99.6 -314.03 97.88 -308.75 96.19 C-296.06 92.08 -296.06 92.08 -283.62 87.31 C-276.89 84.67 -270.01 82.4 -263.18 80.03 C-256.51 77.71 -249.84 75.35 -243.23 72.86 C-237.12 70.56 -230.96 68.38 -224.81 66.19 C-223.59 65.75 -222.36 65.31 -221.1 64.86 C-216.02 63.04 -210.94 61.23 -205.81 59.56 C-203.22 58.71 -200.82 57.79 -198.3 56.71 C-193.9 54.83 -189.42 53.36 -184.88 51.88 C-178.08 49.64 -171.31 47.37 -164.56 45 C-163.92 44.77 -163.27 44.55 -162.61 44.32 C-159 43.04 -155.44 41.67 -151.9 40.23 C-146.85 38.19 -141.73 36.44 -136.56 34.75 C-135.65 34.45 -134.74 34.15 -133.81 33.84 C-129.67 32.47 -125.52 31.11 -121.37 29.77 C-120.71 29.55 -120.05 29.33 -119.37 29.11 C-117.64 28.55 -115.91 27.99 -114.17 27.43 C-111.64 26.51 -109.31 25.54 -106.89 24.41 C-100.49 21.51 -93.8 19.39 -87.14 17.16 C-72.09 12.13 -72.09 12.13 -57.25 6.5 C-49.78 3.51 -42.23 0.81 -34.62 -1.81 C-33.47 -2.22 -32.32 -2.63 -31.13 -3.06 C-19 -7.18 -11.7 -4.34 0 0 Z " fill="#DC0833" transform="translate(659.75,158.8125)"/>
<path d="M0 0 C1.6 0.31 3.2 0.62 4.8 0.94 C5.69 1.11 6.58 1.29 7.5 1.47 C10.44 2.09 13.2 2.98 16.02 4.02 C17.07 4.41 18.11 4.79 19.18 5.18 C20.23 5.57 21.29 5.97 22.38 6.38 C24.49 7.16 26.6 7.93 28.71 8.71 C29.75 9.09 30.79 9.48 31.86 9.87 C35.98 11.35 40.13 12.72 44.28 14.09 C47.89 15.3 51.45 16.62 55 18 C55.77 18.3 56.54 18.59 57.34 18.9 C59.03 19.55 60.72 20.2 62.4 20.85 C70.42 23.93 78.44 26.87 86.61 29.53 C96.4 32.76 106.07 36.36 115.77 39.85 C119.86 41.31 123.96 42.75 128.06 44.19 C133.71 46.17 139.33 48.23 144.94 50.31 C155.89 54.38 166.94 58.16 177.98 61.96 C182.22 63.42 186.46 64.89 190.69 66.38 C191.34 66.6 191.99 66.83 192.66 67.06 C195.54 68.07 198.34 69.15 201.13 70.38 C206.68 72.8 212.46 74.62 218.19 76.56 C220.78 77.45 223.38 78.34 225.98 79.23 C226.64 79.46 227.3 79.68 227.98 79.92 C236.17 82.74 244.32 85.66 252.46 88.6 C257.72 90.49 263 92.35 268.31 94.1 C272.21 95.39 276.07 96.74 279.91 98.21 C284.5 99.95 289.13 101.59 293.75 103.25 C294.85 103.65 295.95 104.04 297.08 104.45 C303.84 106.88 310.6 109.27 317.38 111.62 C323.54 113.77 329.69 115.97 335.81 118.25 C344.26 121.39 352.75 124.42 361.25 127.44 C361.92 127.68 362.59 127.91 363.28 128.16 C371.82 131.19 380.37 134.17 388.94 137.12 C397.55 140.1 406.08 143.27 414.59 146.5 C422.57 149.51 430.62 152.31 438.69 155.06 C447.55 158.09 456.37 161.18 465.12 164.5 C465.99 164.83 466.85 165.15 467.74 165.49 C468.53 165.79 469.32 166.09 470.13 166.41 C470.81 166.67 471.49 166.93 472.19 167.2 C474 168 474 168 477 170 C477.67 178.67 476.34 187.41 475.35 196.03 C475.06 198.52 474.78 201.02 474.51 203.52 C474.33 205.1 474.15 206.69 473.97 208.28 C473.89 209.03 473.81 209.77 473.72 210.54 C473.12 215.77 473.12 215.77 472 218 C472.03 219.49 472.03 219.49 472.06 221 C472.11 223.93 471.73 226.46 471.06 229.31 C469.83 234.92 469.61 240.5 469.43 246.23 C469.28 249.96 468.95 253.47 468.11 257.11 C466.62 264.38 465.95 271.75 465.18 279.12 C464.9 281.83 464.61 284.54 464.32 287.25 C463.71 293 463.1 298.75 462.5 304.5 C461.8 311.17 461.09 317.84 460.38 324.51 C460.1 327.16 459.82 329.82 459.55 332.47 C458 347.08 458 347.08 456.36 354.08 C455.88 356.33 455.88 356.33 456 360 C456 363.21 455.76 365.49 455.08 368.56 C453.94 374.04 453.28 379.52 452.69 385.09 C452.51 386.68 452.51 386.68 452.34 388.3 C451.96 391.78 451.59 395.25 451.21 398.72 C450.95 401.15 450.69 403.58 450.42 406.01 C449.73 412.39 449.04 418.77 448.36 425.15 C447.66 431.63 446.96 438.12 446.26 444.6 C445.12 455.07 443.99 465.54 442.86 476.01 C442.67 477.82 442.47 479.64 442.27 481.45 C442.09 483.17 441.91 484.89 441.74 486.61 C441.11 492.79 441.11 492.79 440 495 C439.96 496.35 439.96 497.71 440 499.06 C440 500.36 440 501.66 440 503 C439.67 503.33 439.34 503.66 439 504 C438.59 506.86 438.24 509.7 437.94 512.56 C437.85 513.35 437.76 514.14 437.66 514.95 C437.25 518.67 437 522.21 437.07 525.96 C437.11 529 436.72 531.69 436.07 534.66 C435.04 539.61 434.39 544.52 433.87 549.55 C433.77 550.44 433.68 551.34 433.58 552.26 C433.37 554.19 433.17 556.11 432.97 558.03 C432.65 561.08 432.32 564.12 432 567.16 C431.3 573.61 430.62 580.05 429.94 586.5 C429.14 594 428.34 601.5 427.54 609 C427.22 612 426.9 615 426.59 618 C426.39 619.83 426.2 621.66 426 623.49 C425.91 624.32 425.83 625.16 425.74 626.02 C425.11 631.77 425.11 631.77 424 634 C423.73 635.79 423.51 637.59 423.32 639.39 C423.19 640.53 423.06 641.68 422.93 642.86 C422.73 644.75 422.73 644.75 422.53 646.68 C422.38 648.02 422.23 649.35 422.09 650.69 C421.77 653.57 421.46 656.45 421.15 659.34 C420.66 663.89 420.16 668.45 419.66 673 C418.6 682.67 417.55 692.33 416.5 702 C415.37 712.44 414.23 722.87 413.09 733.3 C412.59 737.83 412.1 742.37 411.61 746.9 C411.31 749.71 411 752.53 410.69 755.34 C410.48 757.27 410.27 759.21 410.07 761.14 C409.94 762.29 409.81 763.43 409.68 764.61 C409.57 765.61 409.47 766.61 409.35 767.64 C409 770 409 770 408 772 C407.76 774.06 407.56 776.12 407.39 778.18 C407.22 780.04 407.22 780.04 407.04 781.93 C406.81 784.55 406.58 787.17 406.37 789.79 C406.25 791.03 406.13 792.28 406.01 793.55 C405.91 794.69 405.81 795.83 405.71 797.01 C404.67 801.39 402.52 803.07 398.78 805.37 C397.98 805.77 397.19 806.17 396.37 806.59 C395.48 807.04 394.59 807.5 393.67 807.97 C392.75 808.43 391.83 808.9 390.88 809.38 C384.57 812.57 378.44 815.89 372.41 819.57 C368.67 821.79 364.81 823.76 360.94 825.75 C353.17 829.78 345.62 834.09 338.11 838.57 C327.59 844.82 316.86 850.62 306 856.27 C300.36 859.22 294.92 862.41 289.5 865.74 C284.42 868.83 279.18 871.46 273.84 874.05 C268.42 876.71 263.36 879.81 258.25 883.04 C243.41 892 243.41 892 239 892 C239 892.66 239 893.32 239 894 C238.42 894.3 237.84 894.6 237.25 894.91 C234.56 896.32 231.87 897.72 229.19 899.12 C227.82 899.84 227.82 899.84 226.43 900.56 C215.99 906.02 205.69 911.7 195.44 917.5 C194.47 918.04 193.51 918.59 192.52 919.14 C187.9 921.75 183.32 924.4 178.79 927.16 C174.01 930.04 169.1 932.51 164.08 934.92 C159.43 937.19 155.03 939.75 150.61 942.44 C146.27 945.03 141.82 947.42 137.38 949.81 C130.82 953.36 124.29 956.94 117.81 960.62 C111.17 964.4 104.42 967.95 97.64 971.48 C92.91 973.96 88.32 976.56 83.78 979.38 C78.99 982.17 74.05 984.69 69.12 987.22 C64.14 989.81 59.31 992.57 54.51 995.48 C50.4 997.97 46.23 1000.36 42.06 1002.75 C41.16 1003.26 40.27 1003.78 39.34 1004.31 C32.44 1008.24 25.46 1011.99 18.39 1015.61 C14 1017.88 9.84 1020.31 5.74 1023.07 C4 1024 4 1024 1 1024 C0.67 894.64 0.34 765.28 0 632 C41.58 632 83.16 632 126 632 C128.5 637.01 130.78 641.7 132.82 646.86 C133.08 647.5 133.33 648.14 133.6 648.8 C134.44 650.93 135.28 653.06 136.12 655.19 C136.74 656.73 137.35 658.27 137.96 659.81 C139.28 663.12 140.6 666.44 141.92 669.76 C145.14 677.87 148.38 685.96 151.62 694.06 C153.52 698.8 155.42 703.54 157.31 708.28 C157.69 709.23 158.08 710.18 158.47 711.17 C160.88 717.2 163.29 723.24 165.7 729.28 C167.33 733.35 168.95 737.43 170.58 741.5 C171.35 743.43 172.12 745.36 172.88 747.29 C176.33 755.93 179.77 764.58 183.39 773.16 C183.85 774.25 184.31 775.34 184.78 776.47 C185.87 779.09 185.87 779.09 188 781 C190.01 781.3 190.01 781.3 192.34 781.24 C193.25 781.24 194.16 781.25 195.1 781.25 C196.11 781.24 197.11 781.23 198.14 781.23 C199.19 781.23 200.25 781.23 201.33 781.23 C204.83 781.23 208.32 781.21 211.82 781.2 C214.24 781.19 216.66 781.19 219.08 781.19 C225.45 781.18 231.83 781.16 238.2 781.14 C244.7 781.12 251.21 781.11 257.71 781.1 C270.47 781.08 283.24 781.04 296 781 C294.4 777.14 292.8 773.29 291.19 769.43 C290.74 768.35 290.29 767.26 289.83 766.14 C286.82 758.91 283.71 751.77 280.38 744.69 C277.03 737.49 273.79 730.27 270.75 722.94 C268.27 716.96 265.68 711.06 262.9 705.21 C260.05 699.16 257.33 693.05 254.62 686.94 C250.05 676.61 245.45 666.29 240.83 655.98 C237.55 648.65 234.28 641.33 231 634 C230.65 633.21 230.29 632.42 229.93 631.61 C222.14 614.18 214.42 596.74 206.94 579.18 C204.04 572.38 201.04 565.67 197.87 559 C194.83 552.56 191.99 546.02 189.11 539.51 C184.94 530.11 180.75 520.73 176.55 511.35 C171.04 499.07 165.56 486.78 160.16 474.45 C155.95 464.86 151.69 455.29 147.43 445.73 C142.19 433.97 137.01 422.2 131.85 410.41 C126.35 397.84 120.81 385.28 115.05 372.83 C110.47 362.92 106.09 352.93 101.7 342.94 C97.53 333.46 93.32 324 89.06 314.56 C85.14 305.86 81.33 297.13 77.67 288.31 C75.54 283.22 73.27 278.2 70.9 273.21 C67.51 266.03 64.32 258.77 61.11 251.51 C56.94 242.12 52.75 232.73 48.55 223.35 C43.05 211.08 37.57 198.8 32.17 186.49 C27.22 175.21 22.22 163.96 17.2 152.72 C16.55 151.26 15.92 149.81 15.28 148.35 C13.4 144.02 11.4 139.79 9.23 135.59 C1.18 119.5 -0.56 106 -0.29 88.18 C-0.29 85.62 -0.3 83.05 -0.31 80.49 C-0.33 74.5 -0.3 68.52 -0.24 62.54 C-0.17 55.7 -0.18 48.87 -0.18 42.04 C-0.19 28.02 -0.12 14.01 0 0 Z " fill="#C0052E" transform="translate(639,153)"/>
<path d="M0 0 C2.36 2.13 3.61 3.98 4.8 6.92 C5.11 7.69 5.43 8.46 5.75 9.25 C6.25 10.49 6.25 10.49 6.75 11.75 C7.47 13.5 8.19 15.25 8.91 16.99 C9.44 18.28 9.44 18.28 9.99 19.6 C11.56 23.32 13.28 26.96 15.01 30.61 C18.18 37.33 21.22 44.1 24.25 50.88 C24.53 51.51 24.82 52.14 25.11 52.79 C29.32 62.2 33.49 71.64 37.64 81.08 C40.29 87.13 42.96 93.16 45.64 99.19 C46.13 100.27 46.13 100.27 46.62 101.37 C47.28 102.87 47.95 104.36 48.61 105.85 C48.95 106.6 49.28 107.35 49.62 108.12 C49.96 108.87 50.29 109.62 50.64 110.4 C54.65 119.4 58.63 128.41 62.56 137.45 C62.94 138.32 63.31 139.19 63.7 140.08 C65.52 144.27 67.34 148.45 69.15 152.64 C72.76 160.97 76.47 169.23 80.33 177.44 C83.04 183.22 85.64 189.05 88.25 194.88 C88.82 196.14 89.39 197.41 89.95 198.68 C93.88 207.47 97.77 216.27 101.64 225.08 C104.29 231.13 106.96 237.16 109.64 243.19 C109.97 243.91 110.29 244.63 110.62 245.37 C111.28 246.87 111.95 248.36 112.61 249.85 C112.95 250.6 113.28 251.35 113.62 252.12 C113.96 252.87 114.29 253.62 114.64 254.4 C118.65 263.4 122.63 272.41 126.56 281.45 C126.94 282.32 127.31 283.19 127.7 284.08 C129.52 288.27 131.34 292.45 133.15 296.64 C136.76 304.97 140.47 313.23 144.33 321.44 C147.04 327.22 149.64 333.05 152.25 338.88 C152.82 340.14 153.39 341.41 153.95 342.68 C157.88 351.47 161.77 360.27 165.64 369.08 C168.29 375.13 170.96 381.16 173.64 387.19 C174.13 388.27 174.13 388.27 174.62 389.37 C175.28 390.87 175.95 392.36 176.61 393.85 C176.95 394.6 177.28 395.35 177.62 396.12 C177.96 396.87 178.29 397.62 178.64 398.4 C182.65 407.4 186.63 416.41 190.56 425.45 C190.94 426.32 191.31 427.19 191.7 428.08 C193.52 432.27 195.34 436.45 197.15 440.64 C200.47 448.29 203.84 455.89 207.4 463.43 C210.86 470.8 214.14 478.24 217.44 485.69 C218.13 487.25 218.82 488.81 219.51 490.37 C220.95 493.61 222.39 496.85 223.82 500.09 C227.01 507.29 230.21 514.49 233.41 521.68 C234.1 523.23 234.78 524.78 235.47 526.32 C239.12 534.54 242.78 542.75 246.5 550.94 C249.35 557.23 252.11 563.56 254.85 569.9 C255.2 570.71 255.55 571.51 255.91 572.35 C257.66 576.41 259.41 580.48 261.15 584.54 C264.44 592.2 267.8 599.81 271.35 607.34 C274.66 614.38 277.82 621.47 280.98 628.58 C282 630.87 283.02 633.15 284.04 635.44 C288.54 645.56 292.84 655.74 297 666 C295.45 667.55 293.97 667.14 291.81 667.15 C290.9 667.16 290 667.17 289.07 667.18 C287.57 667.19 287.57 667.19 286.04 667.19 C284.99 667.2 283.94 667.21 282.86 667.22 C279.38 667.24 275.9 667.26 272.42 667.27 C270.64 667.28 270.64 667.28 268.83 667.29 C262.55 667.32 256.28 667.34 250 667.35 C243.51 667.37 237.01 667.41 230.52 667.46 C225.54 667.5 220.56 667.51 215.58 667.51 C213.18 667.52 210.79 667.54 208.39 667.56 C205.05 667.59 201.7 667.59 198.35 667.58 C197.36 667.6 196.36 667.62 195.34 667.63 C188.62 667.57 188.62 667.57 185.43 664.62 C184 662 182.73 659.44 181.62 656.66 C181.2 655.61 180.78 654.57 180.35 653.49 C179.9 652.36 179.46 651.23 179 650.06 C178.27 648.24 177.54 646.42 176.81 644.6 C176.05 642.69 175.29 640.77 174.53 638.86 C173.04 635.1 171.54 631.35 170.04 627.6 C167.77 621.96 165.52 616.32 163.27 610.68 C160.56 603.89 157.84 597.1 155.12 590.31 C152.2 583 149.28 575.69 146.36 568.38 C145.14 565.33 143.92 562.28 142.7 559.23 C142.13 557.79 141.55 556.34 140.98 554.9 C137.45 546.07 133.88 537.25 130.28 528.45 C129.87 527.44 129.45 526.43 129.03 525.39 C128.02 522.93 127.01 520.46 126 518 C107.65 517.82 89.29 517.66 70.94 517.5 C70.24 517.49 69.55 517.49 68.83 517.48 C22.1 517.08 -24.64 516.91 -71.38 516.94 C-72.08 516.94 -72.79 516.94 -73.51 516.94 C-91.34 516.95 -109.17 516.97 -127 517 C-127.2 517.67 -127.4 518.35 -127.6 519.04 C-127.86 519.93 -128.13 520.82 -128.4 521.73 C-128.66 522.61 -128.92 523.49 -129.19 524.4 C-130.37 528.18 -131.81 531.83 -133.3 535.5 C-133.61 536.27 -133.93 537.05 -134.25 537.86 C-135.27 540.38 -136.29 542.91 -137.31 545.44 C-138.03 547.22 -138.75 549 -139.46 550.78 C-140.93 554.42 -142.4 558.06 -143.86 561.7 C-145.85 566.61 -147.82 571.54 -149.78 576.46 C-150.08 577.2 -150.37 577.95 -150.68 578.71 C-151.27 580.19 -151.86 581.66 -152.44 583.13 C-157.23 595.12 -162.06 607.08 -166.94 619.03 C-171.03 629.03 -175.04 639.06 -179.03 649.09 C-179.5 650.28 -179.98 651.48 -180.47 652.7 C-180.89 653.75 -181.3 654.8 -181.73 655.88 C-183.11 659.27 -184.56 662.63 -186 666 C-222.3 666 -258.6 666 -296 666 C-295.15 661.75 -294.12 658.64 -292.41 654.72 C-292.15 654.12 -291.89 653.52 -291.62 652.91 C-290.77 650.96 -289.92 649.01 -289.06 647.06 C-288.47 645.7 -287.88 644.35 -287.28 642.99 C-282.68 632.45 -277.94 621.97 -273.15 611.51 C-267.92 600.07 -262.8 588.58 -257.75 577.06 C-251.85 563.61 -245.84 550.21 -239.82 536.82 C-232.07 519.59 -224.37 502.34 -216.7 485.08 C-212.97 476.67 -209.23 468.26 -205.44 459.88 C-201.57 451.32 -197.78 442.72 -194 434.12 C-188.58 421.82 -183.12 409.52 -177.62 397.25 C-177.27 396.46 -176.92 395.67 -176.56 394.86 C-173.68 388.44 -170.8 382.01 -167.92 375.58 C-165.4 369.97 -162.89 364.36 -160.38 358.75 C-159.84 357.56 -159.84 357.56 -159.3 356.35 C-154.04 344.61 -148.83 332.84 -143.65 321.06 C-137.67 307.47 -131.58 293.93 -125.48 280.4 C-120.8 270.02 -116.15 259.63 -111.54 249.22 C-107.66 240.47 -103.75 231.74 -99.84 223 C-93.86 209.64 -87.88 196.26 -81.94 182.88 C-81.45 181.77 -81.45 181.77 -80.94 180.64 C-78.63 175.42 -76.31 170.21 -74 165 C-65.88 146.7 -57.74 128.4 -49.56 110.12 C-49.21 109.34 -48.86 108.55 -48.5 107.74 C-44.92 99.75 -41.34 91.76 -37.76 83.76 C-30.44 67.44 -23.15 51.12 -15.94 34.75 C-15.62 34.04 -15.31 33.33 -14.99 32.6 C-12.52 27 -10.06 21.41 -7.6 15.81 C-6.44 13.18 -5.28 10.56 -4.12 7.94 C-3.81 7.22 -3.49 6.5 -3.17 5.75 C-1.11 1.11 -1.11 1.11 0 0 Z " fill="#FDFDFD" transform="translate(639,268)"/>
<path d="M0 0 C0.99 0 1.98 0 3 0 C3.63 1.52 4.27 3.05 4.9 4.57 C5.48 5.96 6.06 7.35 6.64 8.73 C8.29 12.7 9.95 16.67 11.6 20.64 C15.07 28.97 18.54 37.3 22.02 45.63 C27.56 58.91 33.1 72.19 38.52 85.51 C42.01 94.07 45.57 102.6 49.12 111.12 C49.45 111.89 49.77 112.66 50.1 113.45 C53.02 120.47 55.95 127.49 58.89 134.51 C60.74 138.95 62.59 143.38 64.44 147.81 C64.74 148.54 65.04 149.26 65.35 150.01 C71.29 164.24 77.15 178.51 82.99 192.79 C83.31 193.59 83.64 194.39 83.98 195.22 C84.6 196.73 85.21 198.24 85.83 199.75 C87.32 203.41 87.32 203.41 89 207 C31.91 207 -25.18 207 -84 207 C-83.24 201.66 -82.56 198.36 -80.59 193.58 C-80.34 192.98 -80.09 192.38 -79.84 191.76 C-79.03 189.77 -78.2 187.79 -77.38 185.81 C-76.79 184.39 -76.2 182.97 -75.62 181.54 C-74.07 177.78 -72.51 174.02 -70.94 170.26 C-70.02 168.06 -69.11 165.85 -68.19 163.64 C-65.12 156.25 -62.04 148.86 -58.95 141.47 C-55.14 132.36 -51.36 123.23 -47.58 114.1 C-40.34 96.63 -33.07 79.16 -25.79 61.7 C-23.53 56.27 -21.27 50.85 -19.01 45.42 C-12.7 30.27 -6.39 15.12 0 0 Z " fill="#DC0833" transform="translate(638,486)"/>
<path d="M0 0 C2.71 3.61 4.38 6.89 6.05 11 C6.33 11.7 6.62 12.39 6.92 13.11 C7.87 15.4 8.81 17.7 9.75 20 C10.41 21.61 11.08 23.22 11.74 24.83 C13.13 28.19 14.52 31.55 15.9 34.91 C18.9 42.2 21.94 49.48 24.97 56.75 C25.94 59.06 26.9 61.37 27.86 63.68 C30.91 71 33.97 78.32 37.06 85.62 C40.93 94.77 44.69 103.96 48.47 113.14 C53.37 125.07 58.32 136.99 63.3 148.89 C69.26 163.17 75.13 177.47 80.99 191.79 C81.48 192.99 81.48 192.99 81.98 194.22 C82.6 195.73 83.21 197.24 83.83 198.75 C85.32 202.41 85.32 202.41 87 206 C58.29 205.67 29.58 205.34 0 205 C0 137.35 0 69.7 0 0 Z " fill="#C0052E" transform="translate(640,487)"/>
<path d="M0 0 C0.33 0 0.66 0 1 0 C1 1.98 1 3.96 1 6 C0.67 6 0.34 6 0 6 C0 4.02 0 2.04 0 0 Z " fill="#000000" transform="translate(1047,925)"/>
<path d="M0 0 C0.33 0 0.66 0 1 0 C1 1.65 1 3.3 1 5 C0.67 5 0.34 5 0 5 C0 3.35 0 1.7 0 0 Z " fill="#000000" transform="translate(1045,943)"/>
<path d="M0 0 C0.33 0 0.66 0 1 0 C1 1.65 1 3.3 1 5 C0.67 5 0.34 5 0 5 C0 3.35 0 1.7 0 0 Z " fill="#000000" transform="translate(1061,804)"/>
<path d="M0 0 C0.33 0 0.66 0 1 0 C1 1.65 1 3.3 1 5 C0.67 5 0.34 5 0 5 C0 3.35 0 1.7 0 0 Z " fill="#000000" transform="translate(1062,796)"/>
<path d="M0 0 C0.33 0 0.66 0 1 0 C1 1.65 1 3.3 1 5 C0.67 5 0.34 5 0 5 C0 3.35 0 1.7 0 0 Z " fill="#000000" transform="translate(1063,787)"/>
<path d="M0 0 C0.33 0 0.66 0 1 0 C1 1.65 1 3.3 1 5 C0.67 5 0.34 5 0 5 C0 3.35 0 1.7 0 0 Z " fill="#000000" transform="translate(1077,666)"/>
<path d="M0 0 C0.33 0 0.66 0 1 0 C1 1.65 1 3.3 1 5 C0.67 5 0.34 5 0 5 C0 3.35 0 1.7 0 0 Z " fill="#000000" transform="translate(1078,657)"/>
<path d="M0 0 C0.33 0 0.66 0 1 0 C1 1.65 1 3.3 1 5 C0.67 5 0.34 5 0 5 C0 3.35 0 1.7 0 0 Z " fill="#000000" transform="translate(1079,648)"/>
<path d="M0 0 C0.33 0 0.66 0 1 0 C1 1.65 1 3.3 1 5 C0.67 5 0.34 5 0 5 C0 3.35 0 1.7 0 0 Z " fill="#000000" transform="translate(1093,527)"/>
<path d="M0 0 C0.33 0 0.66 0 1 0 C1 1.65 1 3.3 1 5 C0.67 5 0.34 5 0 5 C0 3.35 0 1.7 0 0 Z " fill="#000000" transform="translate(1095,509)"/>
<path d="M0 0 C0.33 0 0.66 0 1 0 C1 1.65 1 3.3 1 5 C0.67 5 0.34 5 0 5 C0 3.35 0 1.7 0 0 Z " fill="#000000" transform="translate(1109,388)"/>
<path d="M0 0 C0.33 0 0.66 0 1 0 C1 1.65 1 3.3 1 5 C0.67 5 0.34 5 0 5 C0 3.35 0 1.7 0 0 Z " fill="#000000" transform="translate(1110,380)"/>
<path d="M0 0 C0.33 0 0.66 0 1 0 C1 1.65 1 3.3 1 5 C0.67 5 0.34 5 0 5 C0 3.35 0 1.7 0 0 Z " fill="#000000" transform="translate(1111,371)"/>
<path d="M0 0 C1 4 1 4 1 4 Z " fill="#000000" transform="translate(1046,935)"/>
<path d="M0 0 C1 4 1 4 1 4 Z " fill="#000000" transform="translate(1060,814)"/>
<path d="M0 0 C1 4 1 4 1 4 Z " fill="#000000" transform="translate(1076,675)"/>
<path d="M0 0 C1 4 1 4 1 4 Z " fill="#000000" transform="translate(1094,519)"/>
<path d="M0 0 C1 4 1 4 1 4 Z " fill="#000000" transform="translate(1108,398)"/>
<path d="" fill="#000000" transform="translate(0,0)"/>
<path d="" fill="#000000" transform="translate(0,0)"/>
<path d="" fill="#000000" transform="translate(0,0)"/>
<path d="" fill="#000000" transform="translate(0,0)"/>
<path d="" fill="#000000" transform="translate(0,0)"/>
<path d="" fill="#000000" transform="translate(0,0)"/>
</svg>
