<?xml version="1.0" encoding="UTF-8"?>
<!-- Generator: visioncortex VTracer 0.6.3 -->
<svg version="1.1" xmlns="http://www.w3.org/2000/svg" width="1280" height="1280">
<path d="M0 0 C2.01 -0.01 4.02 -0.02 6.03 -0.03 C10.23 -0.04 14.42 -0.05 18.62 -0.05 C22.81 -0.06 27 -0.08 31.19 -0.12 C68.59 -0.44 109.55 -0.58 145.73 10.36 C149.62 11.41 153.49 12.04 157.47 12.62 C176.85 15.67 195.7 21.78 214.47 27.37 C215.39 27.64 216.31 27.91 217.26 28.19 C218.14 28.45 219.03 28.71 219.94 28.98 C220.72 29.22 221.51 29.45 222.31 29.68 C226.56 31.04 230.55 32.95 234.59 34.81 C237.86 36.21 241.19 37.23 244.59 38.25 C254.9 41.36 264.67 45.38 274.41 49.96 C277.13 51.22 279.86 52.35 282.66 53.43 C286.78 55.05 290.69 56.94 294.64 58.95 C298.05 60.66 301.51 62.27 304.97 63.87 C310.86 66.6 316.69 69.42 322.47 72.37 C322.47 73.03 322.47 73.69 322.47 74.37 C323.13 74.45 323.79 74.52 324.46 74.6 C328.56 75.65 331.88 77.6 335.53 79.68 C336.31 80.12 337.09 80.57 337.9 81.02 C352.02 89.03 365.9 97.45 379.47 106.37 C381.14 107.42 381.14 107.42 382.85 108.5 C384.15 109.42 384.15 109.42 385.47 110.37 C385.47 111.03 385.47 111.69 385.47 112.37 C386.05 112.48 386.63 112.6 387.23 112.71 C389.69 113.44 391.25 114.42 393.33 115.92 C394.42 116.69 394.42 116.69 395.52 117.48 C396.27 118.02 397.01 118.56 397.78 119.12 C398.88 119.91 398.88 119.91 400.01 120.71 C401.46 121.76 402.91 122.81 404.36 123.86 C405.75 124.86 407.16 125.84 408.57 126.81 C410.24 127.95 411.86 129.15 413.47 130.37 C413.47 131.03 413.47 131.69 413.47 132.37 C414.19 132.61 414.9 132.86 415.64 133.11 C418.84 134.54 421.05 136.29 423.72 138.56 C428.01 142.17 432.38 145.62 436.89 148.96 C437.41 149.43 437.93 149.89 438.47 150.37 C438.47 151.03 438.47 151.69 438.47 152.37 C439.57 152.73 439.57 152.73 440.7 153.11 C443.82 154.53 445.45 156.12 447.78 158.62 C451.22 162.19 454.69 165.23 458.74 168.08 C460.51 169.4 462.02 170.71 463.47 172.37 C463.47 173.03 463.47 173.69 463.47 174.37 C464.03 174.6 464.58 174.84 465.16 175.08 C468.07 176.71 470.09 178.73 472.45 181.09 C473.39 182.02 474.32 182.95 475.29 183.91 C475.77 184.4 476.25 184.88 476.74 185.38 C478.22 186.87 479.71 188.35 481.2 189.83 C482.59 191.23 482.59 191.23 484.02 192.65 C484.87 193.51 485.72 194.37 486.6 195.25 C488.47 197.37 488.47 197.37 488.47 199.37 C489.43 199.77 489.43 199.77 490.41 200.18 C492.47 201.37 492.47 201.37 493.47 204.37 C494.13 204.37 494.79 204.37 495.47 204.37 C500.47 209.85 500.47 209.85 500.47 212.37 C501.43 212.77 501.43 212.77 502.41 213.18 C504.47 214.37 504.47 214.37 505.47 217.37 C506.13 217.37 506.79 217.37 507.47 217.37 C508.98 219.05 508.98 219.05 510.59 221.25 C511.13 221.97 511.67 222.68 512.23 223.43 C513.47 225.37 513.47 225.37 513.47 227.37 C514.02 227.57 514.57 227.76 515.14 227.96 C518.46 229.97 520.48 232.88 522.78 235.93 C523.26 236.56 523.74 237.19 524.24 237.83 C525.2 239.09 526.16 240.35 527.12 241.61 C529.47 244.68 531.9 247.68 534.32 250.7 C535.47 252.37 535.47 252.37 535.47 254.37 C536.13 254.37 536.79 254.37 537.47 254.37 C539.16 256.61 540.73 258.85 542.28 261.18 C543.28 262.66 544.28 264.14 545.27 265.62 C545.8 266.4 546.32 267.18 546.86 267.98 C548.44 270.33 550.05 272.67 551.66 275 C562.36 290.44 572.48 306.16 581.51 322.64 C582.44 324.31 583.39 325.96 584.34 327.61 C587.19 332.58 589.82 337.67 592.47 342.75 C592.99 343.74 593.51 344.73 594.05 345.75 C596.72 350.86 599.24 355.99 601.54 361.28 C603.05 364.67 604.77 367.95 606.47 371.25 C609.2 376.63 611.54 381.95 613.48 387.67 C614.63 390.8 616.03 393.74 617.47 396.75 C619.98 402.06 621.84 407.35 623.41 413.01 C624.57 416.68 625.98 420.19 627.43 423.76 C629.05 427.83 630.46 431.97 631.84 436.12 C632.14 437.02 632.44 437.91 632.75 438.83 C635.52 447.28 637.85 455.84 640.13 464.44 C641.15 468.27 642.29 472.04 643.53 475.81 C647.82 489.44 650.28 503.75 652.79 517.8 C653.26 520.28 653.8 522.74 654.39 525.18 C655.94 532.05 656.74 539.05 657.65 546.02 C657.96 548.44 658.29 550.86 658.61 553.28 C661.27 573.33 662.79 593.24 662.8 613.46 C662.81 615.51 662.82 617.56 662.82 619.61 C662.84 623.88 662.84 628.14 662.84 632.41 C662.84 636.69 662.85 640.97 662.88 645.25 C663.05 672.9 661.98 699.94 658.47 727.37 C658.19 729.62 657.91 731.87 657.63 734.11 C656.6 742.39 655.12 750.39 652.94 758.44 C651.63 763.38 650.81 768.31 650.09 773.37 C647.79 789.17 643.54 804.61 638.58 819.77 C637.03 824.53 635.69 829.27 634.47 834.12 C632.97 839.94 630.99 845.35 628.68 850.88 C627.03 854.87 625.63 858.86 624.41 863 C621.39 873.16 617.37 882.76 612.86 892.34 C611.7 894.87 610.65 897.4 609.66 900 C601.43 921.01 590.83 943.59 577.89 962.14 C576.21 964.77 574.89 967.49 573.53 970.31 C571.19 975.12 568.53 979.36 565.38 983.69 C563.17 986.79 561.13 989.97 559.09 993.18 C554.72 1000.03 550.16 1006.73 545.47 1013.37 C544.66 1014.52 544.66 1014.52 543.84 1015.69 C542.08 1018.19 540.31 1020.69 538.53 1023.18 C537.96 1023.99 537.39 1024.8 536.81 1025.63 C536.01 1026.75 536.01 1026.75 535.19 1027.89 C534.71 1028.56 534.24 1029.23 533.75 1029.93 C533.32 1030.4 532.9 1030.88 532.47 1031.37 C531.81 1031.37 531.15 1031.37 530.47 1031.37 C530.26 1032.06 530.05 1032.74 529.83 1033.45 C528.04 1037.29 525.53 1040.05 522.72 1043.18 C519.27 1047.11 515.9 1051 512.84 1055.25 C511.67 1056.79 511.67 1056.79 510.47 1058.37 C509.81 1058.37 509.15 1058.37 508.47 1058.37 C508.24 1058.92 508.02 1059.46 507.79 1060.02 C506.06 1063.11 503.82 1065.42 501.41 1068 C498.05 1071.41 498.05 1071.41 495.47 1075.37 C494.81 1075.37 494.15 1075.37 493.47 1075.37 C493.14 1076.36 492.81 1077.35 492.47 1078.37 C491.81 1078.37 491.15 1078.37 490.47 1078.37 C490.25 1078.91 490.04 1079.45 489.81 1080.01 C488 1083.19 485.55 1085.58 482.97 1088.12 C482.47 1088.63 481.97 1089.13 481.46 1089.66 C477.72 1093.37 477.72 1093.37 475.47 1093.37 C475.26 1093.91 475.06 1094.44 474.84 1095 C472.94 1098.29 470.42 1100.96 467.47 1103.37 C466.81 1103.37 466.15 1103.37 465.47 1103.37 C465.47 1104.03 465.47 1104.69 465.47 1105.37 C464.09 1107 464.09 1107 462.47 1108.37 C461.81 1108.37 461.15 1108.37 460.47 1108.37 C460.47 1109.03 460.47 1109.69 460.47 1110.37 C458.77 1111.89 457.01 1113.34 455.22 1114.75 C452.42 1116.96 449.73 1119.1 447.23 1121.66 C445.47 1123.37 445.47 1123.37 443.47 1123.37 C443.47 1124.03 443.47 1124.69 443.47 1125.37 C441.92 1126.75 441.92 1126.75 439.72 1128.37 C436.04 1131.15 432.48 1134.02 428.97 1137 C418.56 1145.74 407.7 1153.94 396.53 1161.68 C395.51 1162.4 395.51 1162.4 394.47 1163.12 C389.71 1166.37 389.71 1166.37 387.47 1166.37 C387.47 1167.03 387.47 1167.69 387.47 1168.37 C386.42 1168.95 385.37 1169.53 384.28 1170.12 C381.89 1171.48 379.98 1172.78 377.84 1174.56 C375.3 1176.5 373.61 1177.01 370.47 1177.37 C366.26 1172.76 362.87 1168.02 359.58 1162.72 C356.97 1158.58 354.26 1154.51 351.53 1150.43 C351.01 1149.65 350.49 1148.87 349.95 1148.06 C348.92 1146.53 347.9 1145 346.87 1143.46 C344.4 1139.77 341.93 1136.06 339.46 1132.36 C337.98 1130.14 336.49 1127.91 335 1125.69 C331.2 1120.02 327.42 1114.34 323.78 1108.56 C321.6 1105.09 319.34 1101.71 316.97 1098.37 C306.47 1083.51 306.47 1083.51 306.47 1080.37 C305.81 1080.37 305.15 1080.37 304.47 1080.37 C303.34 1078.88 303.34 1078.88 302.11 1076.79 C301.66 1076.02 301.21 1075.26 300.74 1074.48 C300.26 1073.66 299.78 1072.84 299.28 1072 C295.79 1066.15 292.24 1060.43 288.27 1054.9 C286 1051.71 283.82 1048.45 281.66 1045.18 C281.23 1044.54 280.81 1043.9 280.37 1043.24 C279.5 1041.94 278.63 1040.63 277.76 1039.32 C276.51 1037.43 275.25 1035.55 273.99 1033.67 C269.07 1026.32 264.23 1018.93 259.43 1011.49 C255.5 1005.41 251.5 999.38 247.47 993.37 C245.45 990.35 243.43 987.33 241.41 984.31 C240.89 983.53 240.37 982.76 239.84 981.96 C236.46 976.9 233.17 971.81 229.97 966.63 C228.28 964.08 226.38 961.76 224.47 959.37 C223.57 957.77 222.66 956.16 221.77 954.55 C220.12 951.79 218.31 949.19 216.47 946.56 C212.58 940.98 208.72 935.38 204.91 929.75 C204.37 928.96 203.83 928.18 203.28 927.38 C202.78 926.64 202.29 925.9 201.78 925.14 C201.33 924.49 200.89 923.83 200.43 923.16 C199.47 921.37 199.47 921.37 199.47 918.37 C198.81 918.37 198.15 918.37 197.47 918.37 C196.09 916.49 196.09 916.49 194.47 913.81 C191.6 909.16 188.64 904.59 185.59 900.06 C182.15 894.91 178.72 889.75 175.34 884.56 C174.95 883.97 174.56 883.37 174.16 882.76 C171.47 878.6 171.47 878.6 171.47 876.37 C170.81 876.37 170.15 876.37 169.47 876.37 C167.98 874.29 166.62 872.23 165.28 870.06 C164.68 869.1 164.68 869.1 164.07 868.13 C162.86 866.21 161.66 864.29 160.47 862.37 C159.26 860.45 158.06 858.54 156.84 856.62 C156.29 855.75 155.74 854.88 155.18 853.98 C152.82 850.39 150.31 846.92 147.75 843.46 C146.47 841.37 146.47 841.37 146.47 838.37 C145.81 838.37 145.15 838.37 144.47 838.37 C143.09 836.49 143.09 836.49 141.47 833.81 C138.61 829.19 135.68 824.63 132.66 820.12 C132.23 819.49 131.81 818.85 131.37 818.2 C129.66 815.63 127.94 813.07 126.22 810.51 C121.22 803.05 116.26 795.57 111.34 788.06 C110.86 787.32 110.37 786.59 109.87 785.83 C106.47 780.6 106.47 780.6 106.47 778.37 C105.81 778.37 105.15 778.37 104.47 778.37 C103 776.27 101.66 774.19 100.34 772 C99.78 771.09 99.78 771.09 99.21 770.17 C96.47 765.64 96.47 765.64 96.47 763.37 C95.81 763.37 95.15 763.37 94.47 763.37 C93.34 761.88 93.34 761.88 92.11 759.79 C91.66 759.02 91.21 758.26 90.74 757.48 C90.26 756.66 89.78 755.84 89.28 755 C85.79 749.16 82.25 743.44 78.28 737.92 C75.94 734.62 73.7 731.25 71.47 727.87 C68.57 723.49 65.64 719.15 62.59 714.87 C60.75 712.26 59.01 709.67 57.47 706.87 C55.46 703.23 53.07 699.91 50.66 696.52 C47.83 692.46 45.09 688.36 42.34 684.25 C41.84 683.49 41.34 682.74 40.82 681.97 C38.39 678.31 35.97 674.64 33.6 670.94 C33.19 670.3 32.78 669.66 32.36 669 C31.47 667.37 31.47 667.37 31.47 665.37 C30.81 665.37 30.15 665.37 29.47 665.37 C28.36 663.89 28.36 663.89 27.15 661.82 C26.7 661.06 26.25 660.31 25.79 659.53 C25.31 658.71 24.83 657.9 24.34 657.06 C20.59 650.76 16.69 644.74 12.29 638.86 C9.11 634.52 6.32 629.93 3.47 625.37 C-1.49 617.49 -6.56 609.75 -12.08 602.25 C-14.88 598.42 -17.21 594.5 -19.53 590.37 C-20.76 588.46 -22.01 586.57 -23.28 584.68 C-23.97 583.65 -24.67 582.63 -25.38 581.57 C-26.09 580.51 -26.8 579.46 -27.53 578.37 C-28.93 576.27 -30.32 574.16 -31.72 572.06 C-33.85 568.85 -36.01 565.67 -38.28 562.56 C-40.2 559.84 -41.83 557.1 -43.43 554.19 C-44.67 552.13 -46.07 550.27 -47.53 548.37 C-49.73 545.51 -51.55 542.62 -53.29 539.45 C-55.3 536.08 -57.59 532.9 -59.84 529.68 C-66.93 519.52 -73.71 509.14 -80.42 498.71 C-83.46 494.01 -86.54 489.34 -89.66 484.68 C-93.02 479.66 -96.36 474.62 -99.66 469.56 C-100.24 468.67 -100.24 468.67 -100.84 467.76 C-103.53 463.6 -103.53 463.6 -103.53 461.37 C-104.19 461.37 -104.85 461.37 -105.53 461.37 C-107.01 459.35 -107.01 459.35 -108.72 456.56 C-109.34 455.56 -109.96 454.55 -110.6 453.52 C-111.24 452.48 -111.88 451.44 -112.53 450.37 C-116.21 444.46 -119.95 438.71 -124.2 433.19 C-125.81 430.99 -127.11 428.66 -128.41 426.27 C-129.79 423.94 -131.33 421.76 -132.91 419.56 C-135.18 416.36 -137.31 413.14 -139.28 409.75 C-143.24 403.02 -147.74 396.66 -152.22 390.27 C-153.38 388.59 -154.49 386.89 -155.6 385.18 C-162.7 374.52 -172.45 369.04 -184.53 365.37 C-185.52 365.04 -186.51 364.71 -187.53 364.37 C-203.51 363.19 -219.25 362.26 -232.16 372.93 C-237.63 378.11 -240.56 383.1 -240.78 390.79 C-240.79 392.54 -240.79 394.3 -240.79 396.05 C-240.79 397.03 -240.79 398 -240.8 399 C-240.8 402.28 -240.8 405.55 -240.79 408.83 C-240.79 411.2 -240.8 413.56 -240.8 415.93 C-240.81 421.08 -240.81 426.24 -240.81 431.39 C-240.8 439.06 -240.81 446.72 -240.82 454.38 C-240.83 468.87 -240.84 483.35 -240.83 497.83 C-240.83 509.02 -240.83 520.2 -240.84 531.38 C-240.84 532.99 -240.84 534.59 -240.84 536.2 C-240.84 538.62 -240.84 541.04 -240.84 543.46 C-240.85 565.96 -240.86 588.47 -240.85 610.97 C-240.85 611.82 -240.85 612.67 -240.85 613.54 C-240.85 617.84 -240.85 622.14 -240.85 626.44 C-240.85 627.3 -240.85 628.15 -240.85 629.03 C-240.85 630.76 -240.85 632.49 -240.85 634.22 C-240.84 661.1 -240.85 687.98 -240.87 714.86 C-240.89 745.05 -240.9 775.24 -240.89 805.44 C-240.89 808.66 -240.89 811.87 -240.89 815.09 C-240.89 816.28 -240.89 816.28 -240.89 817.49 C-240.89 829.47 -240.9 841.44 -240.91 853.41 C-240.92 867.02 -240.92 880.63 -240.91 894.24 C-240.9 901.86 -240.91 909.48 -240.92 917.1 C-240.93 922.78 -240.92 928.47 -240.91 934.16 C-240.91 936.46 -240.91 938.76 -240.92 941.06 C-240.93 944.19 -240.92 947.31 -240.91 950.44 C-240.91 951.34 -240.92 952.24 -240.93 953.16 C-240.86 960.63 -239.18 966.82 -234.47 972.81 C-233.71 973.8 -233.71 973.8 -232.93 974.8 C-231.6 976.49 -231.6 976.49 -229.53 977.37 C-229.53 978.03 -229.53 978.69 -229.53 979.37 C-228.82 979.65 -228.12 979.92 -227.39 980.21 C-225.52 980.97 -223.68 981.78 -221.86 982.66 C-208.73 988.36 -191.48 989.16 -177.97 984.18 C-176.13 983.3 -174.31 982.36 -172.53 981.37 C-171.39 980.85 -171.39 980.85 -170.23 980.31 C-163.37 976.79 -159.89 970.08 -156.53 963.37 C-156.43 961.07 -156.4 958.78 -156.4 956.48 C-156.39 955.76 -156.39 955.04 -156.39 954.29 C-156.38 951.85 -156.38 949.41 -156.38 946.97 C-156.38 945.21 -156.37 943.46 -156.37 941.7 C-156.36 936.85 -156.35 932 -156.35 927.15 C-156.34 921.93 -156.33 916.71 -156.32 911.49 C-156.3 902.43 -156.28 893.38 -156.27 884.33 C-156.25 871.23 -156.23 858.14 -156.2 845.05 C-156.16 823.81 -156.12 802.57 -156.08 781.32 C-156.08 780.05 -156.08 778.78 -156.08 777.47 C-156.06 768.44 -156.05 759.4 -156.03 750.37 C-156.01 740.05 -156 729.74 -155.98 719.42 C-155.98 718.15 -155.97 716.88 -155.97 715.57 C-155.94 694.41 -155.9 673.25 -155.85 652.09 C-155.83 639.02 -155.8 625.96 -155.79 612.89 C-155.77 603.94 -155.76 595 -155.74 586.05 C-155.73 580.88 -155.72 575.71 -155.71 570.54 C-155.71 565.82 -155.7 561.09 -155.69 556.37 C-155.68 554.65 -155.68 552.94 -155.68 551.22 C-155.68 548.9 -155.68 546.58 -155.67 544.26 C-155.66 542.33 -155.66 542.33 -155.66 540.35 C-155.53 537.37 -155.53 537.37 -154.53 535.37 C-151.49 535.66 -150.62 536.26 -148.63 538.64 C-147.62 540.18 -147.62 540.18 -146.59 541.75 C-145.8 542.94 -145.01 544.12 -144.21 545.31 C-143.79 545.96 -143.36 546.61 -142.92 547.28 C-140.38 551.11 -137.76 554.89 -135.16 558.68 C-134.04 560.31 -132.93 561.94 -131.82 563.57 C-129.22 567.37 -126.61 571.16 -124 574.95 C-122.23 577.53 -120.46 580.11 -118.69 582.69 C-117.63 584.23 -116.57 585.76 -115.52 587.29 C-114.96 588.1 -114.41 588.91 -113.84 589.75 C-113.39 590.41 -112.93 591.08 -112.46 591.77 C-111.53 593.37 -111.53 593.37 -111.53 595.37 C-110.87 595.37 -110.21 595.37 -109.53 595.37 C-108.06 597.47 -106.72 599.55 -105.41 601.75 C-104.85 602.65 -104.85 602.65 -104.28 603.57 C-101.53 608.1 -101.53 608.1 -101.53 610.37 C-100.87 610.37 -100.21 610.37 -99.53 610.37 C-96.53 614.76 -96.53 614.76 -96.53 617.37 C-95.87 617.37 -95.21 617.37 -94.53 617.37 C-93.06 619.47 -91.72 621.55 -90.41 623.75 C-89.85 624.65 -89.85 624.65 -89.28 625.57 C-86.53 630.1 -86.53 630.1 -86.53 632.37 C-85.87 632.37 -85.21 632.37 -84.53 632.37 C-83.19 634.21 -83.19 634.21 -81.59 636.87 C-78.6 641.72 -75.47 646.44 -72.22 651.12 C-68.61 656.34 -65.04 661.58 -61.53 666.87 C-57.59 672.82 -53.56 678.71 -49.5 684.59 C-46.07 689.57 -42.7 694.6 -39.36 699.64 C-37.06 703.07 -34.69 706.44 -32.31 709.81 C-30.36 712.62 -28.48 715.46 -26.59 718.31 C-23.92 722.35 -21.16 726.29 -18.28 730.18 C-15.85 733.49 -13.67 736.76 -11.71 740.38 C-8.12 746.45 -3.81 752.15 0.26 757.91 C4.19 763.48 7.99 769.14 11.76 774.82 C14.78 779.37 17.88 783.85 21.02 788.31 C22.89 790.97 24.67 793.67 26.47 796.37 C27.51 797.85 28.55 799.33 29.59 800.81 C32.54 805 35.39 809.23 38.22 813.5 C42.2 819.5 46.26 825.45 50.35 831.37 C53.98 836.63 57.52 841.94 61.04 847.27 C63.59 851.12 66.23 854.86 69.12 858.46 C70.47 860.37 70.47 860.37 72.29 863.62 C74.54 867.62 77.21 871.22 79.97 874.87 C82.68 878.46 85.33 881.99 87.52 885.93 C89.85 890.05 92.52 893.82 95.29 897.65 C97.51 900.78 99.21 903.74 100.47 907.37 C101.13 907.37 101.79 907.37 102.47 907.37 C104.16 909.64 104.16 909.64 106.03 912.62 C106.65 913.6 107.27 914.57 107.91 915.57 C109.23 917.94 110.01 919.73 110.47 922.37 C111.13 922.37 111.79 922.37 112.47 922.37 C113.98 924.46 113.98 924.46 115.72 927.31 C118.5 931.82 121.38 936.23 124.4 940.59 C125.47 942.37 125.47 942.37 125.47 944.37 C126.13 944.37 126.79 944.37 127.47 944.37 C128.88 946.32 128.88 946.32 130.53 949.06 C134.23 955.04 138.2 960.81 142.22 966.58 C148.58 975.7 154.84 984.89 160.98 994.15 C163.23 997.53 165.5 1000.88 167.84 1004.18 C171.01 1008.67 174.06 1013.23 177.09 1017.81 C181.29 1024.14 185.54 1030.43 189.84 1036.68 C194.44 1043.38 198.98 1050.11 203.47 1056.87 C209.52 1065.97 215.66 1075.01 221.85 1084.02 C224.6 1088.03 227.35 1092.04 230.09 1096.06 C233.72 1101.36 237.35 1106.65 240.99 1111.93 C242.77 1114.52 244.54 1117.1 246.31 1119.69 C247.37 1121.23 248.43 1122.76 249.48 1124.29 C250.04 1125.1 250.59 1125.91 251.16 1126.75 C251.84 1127.75 251.84 1127.75 252.54 1128.77 C253.47 1130.37 253.47 1130.37 253.47 1132.37 C254.13 1132.37 254.79 1132.37 255.47 1132.37 C256.93 1134.43 258.27 1136.47 259.59 1138.62 C260.41 1139.92 261.23 1141.22 262.05 1142.52 C262.46 1143.17 262.87 1143.83 263.29 1144.5 C268.76 1153.17 274.65 1161.57 280.47 1170.02 C303.96 1204.1 303.96 1204.1 308.47 1212.37 C305.78 1215.28 303.39 1217.14 299.8 1218.81 C298.91 1219.23 298.01 1219.65 297.09 1220.08 C296.16 1220.51 295.24 1220.93 294.28 1221.37 C293.37 1221.8 292.46 1222.22 291.53 1222.66 C281.94 1227.14 272.26 1231.36 262.47 1235.37 C261.25 1235.87 260.04 1236.37 258.79 1236.88 C252.13 1239.6 245.44 1242.11 238.59 1244.32 C235.71 1245.29 232.88 1246.37 230.05 1247.48 C221.93 1250.66 213.71 1253.08 205.27 1255.28 C200.33 1256.57 195.5 1258 190.68 1259.65 C186.9 1260.89 183.07 1261.88 179.22 1262.87 C177.98 1263.19 177.98 1263.19 176.72 1263.52 C158.21 1268.3 158.21 1268.3 152.16 1268.81 C148.05 1269.16 144.25 1270.18 140.28 1271.24 C132.28 1273.31 124.27 1274.62 116.09 1275.7 C113.86 1275.99 111.64 1276.3 109.42 1276.61 C90.12 1279.27 70.95 1280.69 51.47 1280.71 C49.42 1280.71 47.37 1280.72 45.32 1280.73 C41.05 1280.74 36.78 1280.74 32.51 1280.74 C28.22 1280.74 23.93 1280.76 19.65 1280.78 C-8.02 1280.96 -35.09 1279.92 -62.53 1276.37 C-64.23 1276.15 -64.23 1276.15 -65.97 1275.93 C-75.7 1274.68 -85.1 1272.94 -94.56 1270.34 C-97.74 1269.51 -100.92 1268.95 -104.16 1268.43 C-110.84 1267.35 -117.43 1265.96 -124.03 1264.5 C-125.16 1264.25 -126.3 1264.01 -127.46 1263.76 C-134.04 1262.31 -140.35 1260.52 -146.7 1258.32 C-150.99 1256.88 -155.35 1255.8 -159.72 1254.68 C-171.3 1251.62 -182.46 1247.59 -193.68 1243.42 C-197.02 1242.19 -200.39 1241.02 -203.76 1239.86 C-209.91 1237.74 -215.87 1235.43 -221.75 1232.64 C-224.4 1231.43 -227.09 1230.35 -229.82 1229.29 C-237.98 1226.14 -245.74 1222.4 -253.52 1218.4 C-256.84 1216.7 -260.19 1215.04 -263.53 1213.37 C-264.52 1212.88 -264.52 1212.88 -265.53 1212.37 C-268.87 1210.7 -272.21 1209.04 -275.57 1207.41 C-284.27 1203.15 -292.58 1198.48 -300.84 1193.4 C-303.27 1191.92 -305.74 1190.53 -308.22 1189.12 C-321.1 1181.63 -333.46 1173.22 -345.68 1164.71 C-349 1162.37 -349 1162.37 -352.53 1160.37 C-352.53 1159.71 -352.53 1159.05 -352.53 1158.37 C-353.23 1158.13 -353.93 1157.9 -354.66 1157.65 C-358.06 1156.14 -360.61 1154.18 -363.53 1151.87 C-364.68 1150.97 -365.82 1150.08 -366.96 1149.18 C-367.55 1148.72 -368.13 1148.26 -368.74 1147.78 C-371.67 1145.47 -374.63 1143.21 -377.59 1140.93 C-378.64 1140.13 -379.68 1139.33 -380.75 1138.5 C-382.45 1137.2 -384.16 1135.93 -385.9 1134.71 C-386.71 1134.05 -386.71 1134.05 -387.53 1133.37 C-387.53 1132.71 -387.53 1132.05 -387.53 1131.37 C-388.46 1130.91 -388.46 1130.91 -389.41 1130.43 C-390.78 1129.75 -392.16 1129.06 -393.53 1128.37 C-393.53 1127.71 -393.53 1127.05 -393.53 1126.37 C-394.41 1125.97 -394.41 1125.97 -395.32 1125.55 C-397.52 1124.38 -399.12 1123.15 -400.97 1121.5 C-401.66 1120.87 -402.36 1120.25 -403.07 1119.61 C-407.12 1115.92 -411.15 1112.2 -415.17 1108.48 C-417.3 1106.51 -419.43 1104.55 -421.58 1102.61 C-431.22 1093.87 -440.77 1084.92 -449.16 1074.96 C-450.53 1073.32 -450.53 1073.32 -452.21 1071.79 C-453.53 1070.37 -453.53 1070.37 -453.53 1068.37 C-454.19 1068.37 -454.85 1068.37 -455.53 1068.37 C-457.05 1066.87 -457.05 1066.87 -458.78 1064.81 C-459.4 1064.08 -460.01 1063.36 -460.64 1062.61 C-461.27 1061.87 -461.89 1061.13 -462.53 1060.37 C-463.12 1059.7 -463.71 1059.04 -464.32 1058.35 C-464.87 1057.74 -465.41 1057.13 -465.97 1056.5 C-466.46 1055.94 -466.96 1055.39 -467.46 1054.82 C-468.53 1053.37 -468.53 1053.37 -468.53 1051.37 C-469.19 1051.37 -469.85 1051.37 -470.53 1051.37 C-472.2 1049.6 -472.2 1049.6 -474.28 1047 C-475.08 1046 -475.87 1045.01 -476.69 1043.99 C-477.64 1042.78 -478.58 1041.58 -479.53 1040.37 C-480.1 1039.65 -480.66 1038.94 -481.24 1038.2 C-498.53 1016.19 -498.53 1016.19 -498.53 1013.37 C-499.19 1013.37 -499.85 1013.37 -500.53 1013.37 C-501.87 1011.53 -501.87 1011.53 -503.47 1008.87 C-506.42 1004.1 -509.51 999.47 -512.72 994.87 C-520.8 983.22 -528.64 971.32 -535.25 958.76 C-536.57 956.3 -538 953.94 -539.47 951.56 C-542.22 947.04 -544.59 942.37 -546.92 937.63 C-549.2 932.99 -551.63 928.47 -554.17 923.97 C-555.81 920.84 -557.14 917.62 -558.53 914.37 C-559.66 912.11 -560.81 909.86 -561.97 907.62 C-564.55 902.55 -566.68 897.47 -568.52 892.09 C-569.59 889.22 -570.87 886.55 -572.22 883.81 C-575.93 875.97 -578.61 867.78 -581.37 859.57 C-583.56 852.99 -583.56 852.99 -586.15 846.57 C-587.7 842.97 -588.84 839.32 -589.91 835.56 C-590.12 834.82 -590.33 834.08 -590.55 833.32 C-591.22 831.01 -591.88 828.69 -592.53 826.37 C-592.74 825.65 -592.94 824.94 -593.15 824.2 C-594.41 819.77 -595.64 815.32 -596.85 810.87 C-597.33 809.12 -597.81 807.37 -598.29 805.63 C-601.23 794.89 -603.99 784.24 -605.59 773.22 C-606.06 770.04 -606.63 767.04 -607.52 763.95 C-608.72 759.7 -609.39 755.48 -610.03 751.12 C-610.27 749.53 -610.51 747.94 -610.75 746.36 C-610.93 745.14 -610.93 745.14 -611.12 743.89 C-611.54 741.3 -612.03 738.74 -612.53 736.16 C-613.76 729.46 -614.43 722.71 -615.09 715.93 C-615.22 714.7 -615.35 713.47 -615.47 712.2 C-615.84 708.59 -616.2 704.98 -616.53 701.37 C-616.62 700.59 -616.7 699.8 -616.79 698.99 C-617.79 688.81 -617.73 678.61 -617.77 668.39 C-617.77 667.38 -617.78 666.37 -617.78 665.33 C-617.8 659.96 -617.82 654.59 -617.83 649.22 C-617.84 644.87 -617.86 640.52 -617.89 636.17 C-618.47 555.12 -618.47 555.12 -607.47 518.87 C-606.75 516.18 -606.34 513.98 -606.09 511.25 C-605.5 505.15 -603.99 499.3 -602.53 493.37 C-602.23 492.13 -601.93 490.89 -601.62 489.61 C-598.02 474.88 -593.87 460.32 -589.47 445.81 C-589.14 444.71 -588.81 443.62 -588.47 442.49 C-586.8 437.04 -584.93 431.9 -582.52 426.73 C-581.38 424.01 -580.56 421.26 -579.73 418.42 C-577.43 410.69 -574.39 403.32 -571.26 395.89 C-570.29 393.58 -569.33 391.26 -568.37 388.94 C-564.44 379.49 -560.14 370.3 -555.46 361.2 C-553.85 358.03 -552.29 354.82 -550.72 351.62 C-545.97 342.04 -540.74 332.71 -535.53 323.37 C-534.59 321.67 -533.64 319.97 -532.7 318.27 C-531.98 316.97 -531.25 315.67 -530.53 314.37 C-529.87 314.37 -529.21 314.37 -528.53 314.37 C-528.35 313.51 -528.35 313.51 -528.17 312.63 C-526.99 308.47 -524.5 304.93 -522.28 301.25 C-521.75 300.36 -521.22 299.48 -520.67 298.56 C-515.55 290.2 -509.9 282.3 -504.06 274.44 C-501.71 271.26 -499.44 268.03 -497.16 264.81 C-493.9 260.23 -490.56 255.75 -487.06 251.35 C-485.54 249.38 -484.13 247.36 -482.72 245.31 C-482 244.34 -481.27 243.37 -480.53 242.37 C-479.87 242.37 -479.21 242.37 -478.53 242.37 C-478.29 241.83 -478.06 241.28 -477.81 240.72 C-476.2 237.77 -474.19 235.38 -472.03 232.81 C-469.72 230.04 -467.53 227.37 -465.53 224.37 C-464.87 224.37 -464.21 224.37 -463.53 224.37 C-463.32 223.84 -463.11 223.32 -462.9 222.77 C-460.96 219.37 -458.35 216.76 -455.66 213.93 C-454.59 212.81 -453.53 211.69 -452.48 210.56 C-451.97 210.03 -451.47 209.49 -450.95 208.94 C-449.65 207.51 -448.46 205.99 -447.27 204.46 C-446.7 203.77 -446.12 203.08 -445.53 202.37 C-444.87 202.37 -444.21 202.37 -443.53 202.37 C-443.2 201.38 -442.87 200.39 -442.53 199.37 C-441.87 199.37 -441.21 199.37 -440.53 199.37 C-440.32 198.83 -440.12 198.3 -439.91 197.75 C-438 194.45 -435.48 191.78 -432.53 189.37 C-431.87 189.37 -431.21 189.37 -430.53 189.37 C-430.53 188.71 -430.53 188.05 -430.53 187.37 C-429.87 187.37 -429.21 187.37 -428.53 187.37 C-428.28 186.79 -428.04 186.22 -427.78 185.62 C-426.35 183.04 -424.75 181.31 -422.53 179.37 C-421.87 179.37 -421.21 179.37 -420.53 179.37 C-420.53 178.71 -420.53 178.05 -420.53 177.37 C-419.2 176.03 -419.2 176.03 -417.28 174.43 C-414.2 171.82 -411.19 169.16 -408.24 166.41 C-402.2 160.8 -395.96 155.53 -389.53 150.37 C-388.27 149.34 -387 148.31 -385.74 147.27 C-372.64 136.56 -359.29 126.37 -345.41 116.68 C-343.83 115.58 -342.25 114.46 -340.68 113.34 C-335.25 109.46 -329.65 105.94 -323.95 102.47 C-320.45 100.34 -317.02 98.11 -313.59 95.87 C-307.77 92.09 -301.81 88.6 -295.76 85.2 C-293.02 83.65 -290.33 82.03 -287.66 80.37 C-281.53 76.66 -275.08 73.57 -268.66 70.42 C-266.32 69.26 -263.98 68.1 -261.65 66.93 C-247.22 59.7 -232.7 53.05 -217.65 47.21 C-214.86 46.11 -212.1 44.93 -209.34 43.75 C-203.93 41.47 -198.42 39.53 -192.88 37.6 C-188.55 36.1 -184.28 34.51 -180.03 32.81 C-170.18 28.97 -159.94 25.96 -149.58 23.86 C-147.25 23.35 -147.25 23.35 -144.03 22.01 C-138.68 19.96 -133.16 18.66 -127.59 17.31 C-126.56 17.05 -125.53 16.8 -124.46 16.53 C-107.78 12.42 -107.78 12.42 -101.97 12 C-97.59 11.62 -93.57 10.64 -89.32 9.5 C-81.19 7.39 -73.05 6.11 -64.72 5.04 C-62.43 4.75 -60.13 4.44 -57.84 4.13 C-38.57 1.56 -19.44 0.05 0 0 Z M221.47 352.37 C220.79 352.59 220.11 352.8 219.41 353.03 C212.73 355.53 206.35 360.4 202.47 366.37 C200.76 370.69 200.22 374.3 200.2 378.94 C200.19 380.25 200.19 381.56 200.18 382.91 C200.18 384.36 200.18 385.81 200.18 387.26 C200.18 388.81 200.17 390.35 200.16 391.9 C200.14 396.14 200.14 400.38 200.13 404.62 C200.13 409.2 200.11 413.78 200.1 418.35 C200.06 429.4 200.05 440.45 200.03 451.5 C200.02 456.71 200.02 461.91 200.01 467.12 C199.98 484.42 199.95 501.72 199.94 519.03 C199.94 520.13 199.94 521.24 199.94 522.38 C199.94 523.49 199.94 524.6 199.94 525.75 C199.94 527.99 199.93 530.24 199.93 532.49 C199.93 533.61 199.93 534.72 199.93 535.87 C199.92 553.95 199.88 572.02 199.82 590.1 C199.76 608.66 199.73 627.22 199.73 645.79 C199.73 656.21 199.71 666.63 199.67 677.05 C199.63 685.92 199.62 694.79 199.64 703.67 C199.64 708.19 199.64 712.72 199.61 717.24 C199.58 721.39 199.58 725.54 199.61 729.68 C199.61 731.18 199.6 732.68 199.58 734.17 C199.46 743.89 200.98 749.92 207.47 757.37 C208.86 759.49 210.24 761.61 211.59 763.75 C212.35 764.93 213.11 766.12 213.87 767.3 C214.28 767.94 214.68 768.58 215.1 769.24 C217.79 773.44 220.51 777.62 223.22 781.81 C223.76 782.65 224.3 783.49 224.86 784.35 C227.26 788.04 229.67 791.69 232.24 795.26 C234.15 797.93 235.78 800.62 237.38 803.49 C240.35 808.61 243.79 813.46 247.28 818.25 C249.47 821.37 249.47 821.37 250.47 824.37 C251.13 824.37 251.79 824.37 252.47 824.37 C252.74 825.1 253 825.82 253.28 826.57 C254.46 829.35 255.82 831.71 257.47 834.25 C258.4 835.68 258.4 835.68 259.34 837.14 C262.13 841.38 264.95 845.6 267.77 849.81 C271.42 855.28 274.96 860.81 278.47 866.37 C279.78 868.43 281.09 870.5 282.41 872.56 C283.43 874.16 284.45 875.77 285.47 877.37 C286.46 877.04 287.45 876.71 288.47 876.37 C288.5 828.84 288.53 781.32 288.55 733.79 C288.55 732.73 288.55 732.73 288.55 731.66 C288.56 716.37 288.57 701.08 288.57 685.79 C288.57 678.29 288.58 670.8 288.58 663.3 C288.58 662.18 288.58 662.18 288.58 661.04 C288.59 636.86 288.6 612.67 288.62 588.49 C288.64 563.64 288.65 538.79 288.66 513.94 C288.66 510.43 288.66 506.92 288.66 503.41 C288.66 502.72 288.66 502.03 288.66 501.32 C288.66 490.2 288.67 479.08 288.68 467.96 C288.69 456.78 288.7 445.6 288.7 434.42 C288.69 428.36 288.7 422.31 288.71 416.25 C288.72 410.71 288.72 405.16 288.71 399.61 C288.71 397.61 288.71 395.6 288.72 393.6 C289.52 375.45 289.52 375.45 281.44 360.12 C274.78 354.21 268.13 352.14 259.47 350.37 C258.72 350.19 257.97 350 257.2 349.81 C245.48 347.93 232.72 348.75 221.47 352.37 Z " fill="#000000" transform="translate(617.53125,-0.37109375)"/>
</svg>
