<?xml version="1.0" encoding="UTF-8"?>
<!-- Generator: visioncortex VTracer 0.6.3 -->
<svg version="1.1" xmlns="http://www.w3.org/2000/svg" width="1280" height="913">
<path d="M0 0 C422.4 0 844.8 0 1280 0 C1280 301.29 1280 602.58 1280 913 C857.6 913 435.2 913 0 913 C0 611.71 0 310.42 0 0 Z " fill="#F9FCFE" transform="translate(0,0)"/>
<path d="M0 0 C0.75 0.16 1.5 0.33 2.27 0.5 C29.82 6.77 56.7 18.55 79 36 C80.01 36.72 81.03 37.44 82.07 38.18 C100.75 51.68 118.04 70.01 131 89 C131.51 89.72 132.02 90.45 132.54 91.19 C144.21 107.85 154.12 126.24 162 145 C162.32 145.76 162.64 146.51 162.96 147.29 C177.08 181.76 183.46 218.83 183.21 256 C183.19 258.76 183.19 261.52 183.19 264.29 C183.16 280.28 182.44 295.75 179.38 311.5 C179.24 312.19 179.11 312.87 178.98 313.58 C169.55 362.69 147.86 410.45 114.59 448.05 C113.01 449.85 111.46 451.69 109.97 453.58 C107.8 456.24 105.45 458.6 103 461 C102.17 461.85 101.34 462.7 100.49 463.58 C95.13 469.05 89.66 474.07 83.65 478.84 C81.17 480.86 78.88 482.98 76.56 485.19 C41.72 516.86 -7.28 537.3 -53 546 C-53.79 546.15 -54.58 546.3 -55.4 546.46 C-117.37 557.98 -183.31 549.63 -240 522 C-240.75 521.64 -241.5 521.29 -242.27 520.92 C-265.96 509.54 -288.46 493.81 -307.77 476.04 C-309.81 474.17 -311.89 472.36 -314 470.56 C-320.89 464.55 -327.31 458.01 -333.25 451.05 C-334.91 449.1 -336.61 447.19 -338.31 445.29 C-348.78 433.32 -357.35 419.89 -365 406 C-365.66 404.81 -365.66 404.81 -366.33 403.6 C-405.94 331.92 -413.59 250.1 -391.65 171.47 C-389 162.42 -385.66 153.68 -382 145 C-381.6 144.06 -381.2 143.11 -380.79 142.14 C-369.58 115.92 -355.3 92.04 -336.45 70.66 C-334.39 68.3 -332.36 65.92 -330.33 63.53 C-316.68 47.8 -298.2 34.1 -280 24 C-279.04 23.46 -279.04 23.46 -278.06 22.91 C-231.97 -2.92 -181.01 -9.04 -130 4 C-127.16 4.88 -124.36 5.86 -121.56 6.88 C-112.06 10.2 -106.05 8.09 -96.76 5.09 C-65.62 -4.84 -32.01 -7.08 0 0 Z " fill="#2462AE" transform="translate(752,189)"/>
<path d="M0 0 C25.28 -1.42 51.24 9.82 71 25 C71.91 25.68 72.81 26.37 73.75 27.07 C93.03 42.22 106.82 60.93 119 82 C119.37 82.63 119.74 83.26 120.12 83.92 C132.72 105.54 140.54 131.02 144.06 155.75 C144.22 156.82 144.37 157.88 144.54 158.98 C145.83 169.41 146.17 179.81 146.12 190.31 C146.12 191.59 146.12 192.86 146.11 194.18 C145.9 230.88 137.17 264.49 120 297 C119.69 297.6 119.38 298.19 119.06 298.81 C104.81 325.82 82.39 349.89 58 368 C57.28 368.57 56.55 369.14 55.81 369.72 C33.15 387.46 6.48 397.67 -21 405 C-21.94 405.26 -22.88 405.52 -23.84 405.78 C-31.29 407.76 -38.65 408.9 -46.31 409.69 C-47.53 409.81 -48.74 409.94 -49.99 410.07 C-61.36 411.17 -72.59 411.35 -84 411 C-84.78 410.98 -85.56 410.97 -86.36 410.95 C-126.05 410.13 -166.3 396.26 -199 374 C-199.58 373.61 -200.15 373.22 -200.75 372.82 C-221.14 358.94 -239.46 341.96 -254 322 C-255.15 320.45 -255.15 320.45 -256.32 318.87 C-269.65 300.31 -279.21 279.52 -286.37 257.89 C-286.93 256.21 -287.52 254.55 -288.12 252.89 C-294.48 234.24 -296.19 213.76 -296.19 194.17 C-296.19 191.9 -296.21 189.63 -296.22 187.36 C-296.44 133.12 -275.17 78.48 -237.12 39.81 C-215.66 18.49 -187.34 3.04 -156.83 0.88 C-154 1 -154 1 -151 3 C-151.66 3 -152.32 3 -153 3 C-153.26 3.59 -153.52 4.19 -153.79 4.8 C-155.06 7.11 -156.36 8.48 -158.29 10.27 C-161.91 13.78 -164.63 17.49 -167.31 21.75 C-167.78 22.48 -168.24 23.22 -168.72 23.97 C-190.91 59.5 -204.67 103.07 -196.88 145.25 C-196.3 147.51 -195.68 149.76 -195 152 C-194.81 152.68 -194.61 153.37 -194.41 154.07 C-185.34 185.86 -164.85 211.53 -136.13 227.84 C-107.9 243.26 -77.3 246.28 -46 240 C-44.94 239.81 -43.88 239.61 -42.79 239.41 C-15.34 233.62 11.39 213.82 26.81 190.62 C47.96 154.89 51.31 117.38 41.68 77.25 C35.47 53.34 22.64 22.83 3.34 6.46 C1.56 4.52 0.86 2.46 0 0 Z " fill="#FAFDFF" transform="translate(716,257)"/>
<path d="M0 0 C4.74 2.12 8.43 4.79 12.19 8.31 C12.75 8.84 13.31 9.37 13.89 9.91 C35.9 31.02 51.27 61.3 52.17 92.04 C52.36 109.97 50.13 125.06 38 139 C27.04 149.71 15.24 153.75 0.06 154.31 C-15.92 153.88 -27.91 147.07 -39 136 C-39.51 135.5 -40.03 134.99 -40.56 134.48 C-44.66 130.06 -46.82 124.52 -49 119 C-49.32 118.21 -49.65 117.43 -49.98 116.62 C-55.65 100.07 -51.97 81.21 -47 65 C-46.78 64.28 -46.56 63.56 -46.34 62.82 C-40.14 43.26 -28.97 25.04 -14 11 C-13.22 10.15 -12.43 9.31 -11.62 8.44 C-8.06 5.13 -4.1 2.6 0 0 Z " fill="#FAFDFF" transform="translate(640,276)"/>
</svg>
